#!OML:ASF H:\Dans Jumps\Project 1\Capture day 1\Session 1\subject.ASF
:FULLY-SPECIFIED
:DEGREES
413
root 0.696449 17.3071 -15.0735 10.6867 -1.25748 -1.8122
lowerback 6.2977 -0.139872 0.107978
upperback 7.07044 -0.232657 1.82515
thorax 3.79257 -0.162719 1.83337
lowerneck -13.0246 0.819302 -1.52545
upperneck 30.1488 1.43088 0.410961
head 12.0394 0.510584 0.617231
rclavicle -3.18055e-015 5.1684e-015
rhumerus -14.3477 0.18091 -85.2779
rradius 33.6272
rwrist 24.4681
rhand -18.7114 -27.1704
rfingers 7.12502
rthumb 7.58372 -57.0145
lclavicle -3.18055e-015 5.1684e-015
lhumerus -14.2594 -15.9725 89.149
lradius 28.7048
lwrist 11.6673
lhand -26.0222 -3.67559
lfingers 7.12502
lthumb 0.524308 26.3035
rfemur -29.0284 -2.50848 20.3294
rtibia 34.1775
rfoot -14.2462 -5.02564
rtoes 9.9464
lfemur -28.6255 6.89319 -19.3617
ltibia 32.8011
lfoot -12.4464 6.69821
ltoes 5.26364
414
root 0.698616 17.2872 -15.0955 10.7419 -1.27342 -1.83035
lowerback 6.52478 -0.132072 0.121497
upperback 7.11977 -0.220502 1.84219
thorax 3.71779 -0.156543 1.8438
lowerneck -13.0648 0.818541 -1.50545
upperneck 29.8968 1.43659 0.36787
head 11.9479 0.512237 0.596839
rclavicle 3.27995e-015 1.55052e-014
rhumerus -14.3459 0.238748 -85.1772
rradius 33.8984
rwrist 24.3162
rhand -18.8273 -27.2038
rfingers 7.12502
rthumb 7.47182 -57.0519
lclavicle 3.27995e-015 1.55052e-014
lhumerus -14.2788 -15.8461 89.0458
lradius 28.9322
lwrist 11.7987
lhand -26.0705 -3.69891
lfingers 7.12502
lthumb 0.477612 26.2803
rfemur -29.4413 -2.54463 20.3594
rtibia 34.6586
rfoot -14.3585 -4.99626
rtoes 9.84792
lfemur -29.0569 6.94459 -19.3793
ltibia 33.3263
lfoot -12.5888 6.71444
ltoes 5.23277
415
root 0.700807 17.2667 -15.1183 10.8021 -1.2916 -1.84531
lowerback 6.75585 -0.123615 0.132159
upperback 7.17365 -0.207497 1.85746
thorax 3.64573 -0.150061 1.85394
lowerneck -13.1073 0.817673 -1.48575
upperneck 29.6335 1.44145 0.326665
head 11.8528 0.513807 0.577134
rclavicle 4.17448e-015 3.97569e-016
rhumerus -14.3448 0.305645 -85.0803
rradius 34.1777
rwrist 24.1588
rhand -18.9427 -27.2219
rfingers 7.12502
rthumb 7.36044 -57.0738
lclavicle 4.17448e-015 3.97569e-016
lhumerus -14.2999 -15.7231 88.9424
lradius 29.171
lwrist 11.9419
lhand -26.1035 -3.65857
lfingers 7.12502
lthumb 0.445768 26.3207
rfemur -29.871 -2.58989 20.3888
rtibia 35.1522
rfoot -14.4718 -4.96061
rtoes 9.73171
lfemur -29.5014 7.00973 -19.4041
ltibia 33.8582
lfoot -12.736 6.72034
ltoes 5.19263
416
root 0.70296 17.2456 -15.1419 10.8701 -1.31394 -1.85361
lowerback 6.98928 -0.113548 0.135644
upperback 7.22924 -0.192515 1.8698
thorax 3.57426 -0.142849 1.86496
lowerneck -13.14 0.818275 -1.47085
upperneck 29.3523 1.44668 0.293685
head 11.7492 0.516216 0.561277
rclavicle -4.96962e-015 -6.36111e-015
rhumerus -14.3477 0.380941 -84.987
rradius 34.4647
rwrist 23.996
rhand -19.0374 -27.2398
rfingers 7.12502
rthumb 7.26902 -57.095
lclavicle -4.96962e-015 -6.36111e-015
lhumerus -14.3247 -15.6039 88.841
lradius 29.4122
lwrist 12.0951
lhand -26.1389 -3.60115
lfingers 7.12502
lthumb 0.411573 26.3782
rfemur -30.3202 -2.64022 20.4134
rtibia 35.6561
rfoot -14.5836 -4.92141
rtoes 9.59529
lfemur -29.9599 7.08731 -19.44
ltibia 34.3945
lfoot -12.8884 6.71814
ltoes 5.1456
417
root 0.704836 17.224 -15.1667 10.9511 -1.33825 -1.86084
lowerback 7.21787 -0.102545 0.135185
upperback 7.28899 -0.176554 1.88123
thorax 3.51004 -0.135352 1.87717
lowerneck -13.1715 0.820788 -1.45764
upperneck 29.0582 1.45376 0.264235
head 11.6407 0.519819 0.547267
rclavicle -5.66536e-015 -8.94531e-015
rhumerus -14.3455 0.459545 -84.8996
rradius 34.7569
rwrist 23.8277
rhand -19.1194 -27.2661
rfingers 7.12502
rthumb 7.18985 -57.124
lclavicle -5.66536e-015 -8.94531e-015
lhumerus -14.3388 -15.4862 88.7389
lradius 29.6451
lwrist 12.2607
lhand -26.1784 -3.52556
lfingers 7.12502
lthumb 0.373467 26.4539
rfemur -30.7944 -2.68888 20.4398
rtibia 36.1686
rfoot -14.6909 -4.88711
rtoes 9.43191
lfemur -30.4399 7.17715 -19.4804
ltibia 34.9346
lfoot -13.0438 6.70547
ltoes 5.09925
418
root 0.706444 17.2019 -15.1925 11.0419 -1.36678 -1.86229
lowerback 7.44498 -0.0893902 0.126729
upperback 7.35258 -0.158121 1.8895
thorax 3.45077 -0.126931 1.89044
lowerneck -13.204 0.824945 -1.44203
upperneck 28.7559 1.46193 0.236294
head 11.53 0.52443 0.533586
rclavicle -6.55989e-015 3.37934e-015
rhumerus -14.3412 0.533861 -84.8195
rradius 35.0521
rwrist 23.658
rhand -19.1986 -27.2974
rfingers 7.12502
rthumb 7.11347 -57.1579
lclavicle -6.55989e-015 3.37934e-015
lhumerus -14.3415 -15.3672 88.6359
lradius 29.8626
lwrist 12.4301
lhand -26.2342 -3.48442
lfingers 7.12502
lthumb 0.319518 26.4951
rfemur -31.2878 -2.73359 20.4616
rtibia 36.6874
rfoot -14.7966 -4.85471
rtoes 9.2701
lfemur -30.9356 7.27694 -19.5303
ltibia 35.4764
lfoot -13.1997 6.68615
ltoes 5.04963
419
root 0.70785 17.1795 -15.2191 11.1467 -1.40097 -1.86151
lowerback 7.66551 -0.0750288 0.112014
upperback 7.41924 -0.138555 1.89697
thorax 3.39852 -0.118252 1.90627
lowerneck -13.239 0.832166 -1.42557
upperneck 28.4494 1.47465 0.206578
head 11.4188 0.530968 0.519791
rclavicle 1.98785e-016 7.35503e-015
rhumerus -14.3367 0.612477 -84.747
rradius 35.3536
rwrist 23.472
rhand -19.2842 -27.3263
rfingers 7.12502
rthumb 7.03085 -57.1895
lclavicle 1.98785e-016 7.35503e-015
lhumerus -14.333 -15.251 88.5345
lradius 30.0537
lwrist 12.6073
lhand -26.3089 -3.50664
lfingers 7.12502
lthumb 0.247436 26.473
rfemur -31.8026 -2.76882 20.4814
rtibia 37.2092
rfoot -14.8997 -4.82792
rtoes 9.10833
lfemur -31.4508 7.38533 -19.5862
ltibia 36.0184
lfoot -13.3541 6.66186
ltoes 5.00637
420
root 0.709172 17.1569 -15.2466 11.2574 -1.43869 -1.85845
lowerback 7.89068 -0.0593469 0.0942332
upperback 7.48923 -0.117443 1.90274
thorax 3.34735 -0.10892 1.92193
lowerneck -13.2821 0.840759 -1.40189
upperneck 28.1451 1.4896 0.169698
head 11.3109 0.53835 0.502581
rclavicle -2.98177e-016 -1.2921e-014
rhumerus -14.3298 0.683237 -84.6819
rradius 35.6531
rwrist 23.2973
rhand -19.3798 -27.3498
rfingers 7.12502
rthumb 6.93854 -57.216
lclavicle -2.98177e-016 -1.2921e-014
lhumerus -14.318 -15.1351 88.4342
lradius 30.2268
lwrist 12.7798
lhand -26.3954 -3.5569
lfingers 7.12502
lthumb 0.163902 26.4228
rfemur -32.3264 -2.79315 20.4977
rtibia 37.7314
rfoot -15.0035 -4.80873
rtoes 8.95778
lfemur -31.9751 7.49611 -19.6467
ltibia 36.5579
lfoot -13.5027 6.63475
ltoes 4.96942
421
root 0.71052 17.134 -15.2749 11.3708 -1.47942 -1.85676
lowerback 8.1246 -0.0426037 0.0776573
upperback 7.56278 -0.0949288 1.90827
thorax 3.29521 -0.0988567 1.93654
lowerneck -13.3354 0.849549 -1.37041
upperneck 27.8436 1.50602 0.121963
head 11.207 0.545839 0.480458
rclavicle 3.18055e-015 4.57205e-015
rhumerus -14.3224 0.748961 -84.6218
rradius 35.9525
rwrist 23.1318
rhand -19.4804 -27.3634
rfingers 7.12502
rthumb 6.84143 -57.2328
lclavicle 3.18055e-015 4.57205e-015
lhumerus -14.2961 -15.0249 88.3358
lradius 30.379
lwrist 12.9523
lhand -26.4797 -3.59433
lfingers 7.12502
lthumb 0.082477 26.3854
rfemur -32.8533 -2.80606 20.5132
rtibia 38.2507
rfoot -15.108 -4.79446
rtoes 8.84002
lfemur -32.504 7.60598 -19.7068
ltibia 37.0943
lfoot -13.645 6.60906
ltoes 4.94256
422
root 0.712037 17.111 -15.3038 11.4848 -1.51956 -1.85284
lowerback 8.3729 -0.0265805 0.0615857
upperback 7.63693 -0.0732744 1.91345
thorax 3.236 -0.0891728 1.95047
lowerneck -13.3862 0.855501 -1.34199
upperneck 27.5372 1.51972 0.071361
head 11.1014 0.551489 0.457533
rclavicle 5.26779e-015 -1.80894e-014
rhumerus -14.3172 0.812059 -84.5641
rradius 36.2487
rwrist 22.9724
rhand -19.5703 -27.3777
rfingers 7.12502
rthumb 6.75467 -57.2499
lclavicle 5.26779e-015 -1.80894e-014
lhumerus -14.2786 -14.8969 88.244
lradius 30.5167
lwrist 13.1016
lhand -26.5711 -3.63566
lfingers 7.12502
lthumb -0.00585069 26.3441
rfemur -33.3793 -2.81017 20.5238
rtibia 38.7656
rfoot -15.2134 -4.78825
rtoes 8.74159
lfemur -33.0341 7.70699 -19.7691
ltibia 37.6268
lfoot -13.7799 6.58819
ltoes 4.9293
423
root 0.713855 17.0877 -15.3335 11.5996 -1.5563 -1.85021
lowerback 8.63682 -0.0131798 0.051658
upperback 7.71202 -0.0546775 1.91834
thorax 3.1695 -0.0807197 1.96074
lowerneck -13.4374 0.860033 -1.31433
upperneck 27.2253 1.5322 0.017708
head 10.9944 0.556188 0.433574
rclavicle -5.66536e-015 -1.43125e-014
rhumerus -14.319 0.876512 -84.5107
rradius 36.5496
rwrist 22.8171
rhand -19.6552 -27.3781
rfingers 7.12502
rthumb 6.67269 -57.253
lclavicle -5.66536e-015 -1.43125e-014
lhumerus -14.2637 -14.753 88.1557
lradius 30.6401
lwrist 13.2362
lhand -26.6676 -3.68584
lfingers 7.12502
lthumb -0.0990626 26.2939
rfemur -33.9047 -2.81092 20.5342
rtibia 39.2748
rfoot -15.3186 -4.7864
rtoes 8.66101
lfemur -33.567 7.79601 -19.8295
ltibia 38.1567
lfoot -13.9071 6.57373
ltoes 4.91526
424
root 0.716006 17.0642 -15.3637 11.7151 -1.58846 -1.85097
lowerback 8.91577 -0.00315314 0.0501518
upperback 7.78736 -0.0399649 1.9241
thorax 3.09539 -0.073837 1.96735
lowerneck -13.4875 0.865316 -1.28934
upperneck 26.9078 1.54647 -0.0373415
head 10.8857 0.56132 0.409901
rclavicle -4.37326e-015 3.97569e-015
rhumerus -14.329 0.942534 -84.4605
rradius 36.8542
rwrist 22.6695
rhand -19.721 -27.3713
rfingers 7.12502
rthumb 6.60912 -57.2482
lclavicle -4.37326e-015 3.97569e-015
lhumerus -14.2556 -14.5912 88.0729
lradius 30.75
lwrist 13.3563
lhand -26.762 -3.73304
lfingers 7.12502
lthumb -0.190209 26.2466
rfemur -34.4291 -2.80928 20.5466
rtibia 39.7793
rfoot -15.4231 -4.78919
rtoes 8.59269
lfemur -34.1022 7.86948 -19.8849
ltibia 38.6855
lfoot -14.0273 6.57088
ltoes 4.89301
